<?xml version="1.0"?>
<svg xmlns="http://www.w3.org/2000/svg" viewBox="0 0 50 50" enable-background="new 0 0 50 50">
    <path style="text-indent:0;text-align:start;line-height:normal;text-transform:none;block-progression:tb;-inkscape-font-specification:Bitstream Vera Sans" d="M 25 1.53125 L 24.09375 3.59375 L 17.9375 17.5625 L 2.8125 19 L 0.53125 19.21875 L 2.21875 20.75 L 13.59375 30.9375 L 10.4375 45.78125 L 9.9375 48 L 11.90625 46.875 L 25 39.25 L 38.09375 46.875 L 40.0625 48 L 39.5625 45.78125 L 36.40625 30.9375 L 47.78125 20.75 L 49.46875 19.21875 L 47.1875 19 L 32.0625 17.5625 L 25.90625 3.59375 L 25 1.53125 z M 25 6.46875 L 30.5 18.90625 L 30.71875 19.4375 L 31.3125 19.5 L 44.71875 20.78125 L 34.625 29.84375 L 34.1875 30.25 L 34.3125 30.8125 L 37.15625 44 L 25.5 37.25 L 25 36.9375 L 24.5 37.25 L 12.84375 44 L 15.6875 30.8125 L 15.8125 30.25 L 15.375 29.84375 L 5.28125 20.78125 L 18.6875 19.5 L 19.28125 19.4375 L 19.5 18.90625 L 25 6.46875 z M 24 19 L 24 25 L 18 25 L 18 27 L 24 27 L 24 33 L 26 33 L 26 27 L 32 27 L 32 25 L 26 25 L 26 19 L 24 19 z" overflow="visible" enable-background="accumulate" font-family="Bitstream Vera Sans"/>
</svg>
