<?xml version="1.0" standalone="no"?>
<!DOCTYPE svg PUBLIC "-//W3C//DTD SVG 20010904//EN"
 "http://www.w3.org/TR/2001/REC-SVG-20010904/DTD/svg10.dtd">
<svg version="1.0" xmlns="http://www.w3.org/2000/svg"
 width="500.000000pt" height="500.000000pt" viewBox="0 0 500.000000 500.000000"
 preserveAspectRatio="xMidYMid meet">
<metadata>
Created by potrace 1.16, written by Peter Selinger 2001-2019
</metadata>
<g transform="translate(0.000000,500.000000) scale(0.097656,-0.097656)"
fill="#000000" stroke="none">
<path d="M797 5113 c-4 -3 -7 -19 -7 -33 0 -24 -5 -28 -38 -33 -20 -4 -51 -3
-67 1 -43 12 -155 -19 -155 -43 0 -8 -19 -16 -50 -20 -44 -6 -53 -4 -81 19
-17 14 -39 26 -49 26 -23 0 -94 36 -111 56 -17 21 -24 18 -80 -26 -32 -25 -61
-40 -79 -40 -46 0 -94 -79 -57 -93 9 -4 9 -6 0 -6 -16 -1 -17 -35 -3 -62 7
-13 7 -19 0 -19 -5 0 -10 -18 -10 -40 0 -29 4 -40 15 -40 12 0 15 15 15 71 0
44 4 68 10 64 13 -8 12 -116 -1 -175 -20 -87 -13 -100 53 -107 32 -4 51 -13
74 -39 35 -37 64 -37 84 1 13 25 37 35 85 35 18 0 38 8 48 21 14 16 27 19 64
17 l47 -3 2 -235 c1 -129 4 -318 8 -420 5 -129 2 -247 -9 -390 -17 -234 -19
-679 -4 -820 6 -52 12 -129 14 -171 2 -42 8 -102 14 -135 12 -69 27 -222 24
-244 -6 -37 31 -86 99 -135 115 -82 115 -82 138 -67 11 6 22 12 24 12 7 0 17
-94 19 -183 l3 -77 50 -45 c27 -25 54 -45 60 -45 7 0 14 -7 18 -15 3 -8 14
-15 25 -15 11 0 23 -5 27 -11 4 -7 23 -9 49 -5 52 7 57 -1 50 -82 -19 -218 -7
-307 44 -318 52 -12 61 -16 56 -25 -3 -5 1 -6 9 -3 8 3 48 0 88 -6 40 -7 83
-12 96 -11 21 1 22 -2 22 -102 0 -80 5 -111 20 -146 20 -42 70 -110 70 -94 0
4 4 4 8 -2 4 -5 32 -23 62 -38 61 -31 81 -42 125 -72 17 -12 56 -36 88 -55 31
-19 57 -38 57 -42 0 -4 10 -8 23 -8 38 0 44 -11 37 -65 -4 -27 -8 -45 -9 -40
-3 21 -21 -22 -21 -51 0 -19 -9 -39 -25 -54 -14 -13 -25 -33 -25 -45 0 -12 -6
-30 -14 -41 -13 -17 -12 -21 2 -37 14 -16 14 -19 2 -27 -8 -6 -22 -10 -31 -10
-21 0 -34 -47 -19 -65 8 -10 8 -19 -2 -34 -21 -34 4 -63 67 -76 27 -6 28 -8
12 -19 -62 -46 32 -65 352 -73 182 -4 225 -3 233 8 7 11 11 11 15 2 7 -19 19
-16 49 12 19 17 31 22 38 15 7 -7 4 -15 -10 -25 -17 -13 -11 -14 70 -15 86 0
88 1 72 18 -15 18 -15 22 6 70 26 58 28 60 106 68 67 7 75 11 147 70 31 24 66
49 79 55 12 6 34 28 48 50 22 34 27 55 32 152 4 73 2 149 -7 220 -8 59 -11
109 -8 111 5 3 20 7 81 22 22 5 241 93 273 109 22 12 38 13 75 4 96 -21 162
22 162 108 0 21 11 84 25 141 14 57 25 114 25 127 0 27 25 45 63 45 28 0 89
57 112 106 10 22 29 39 51 49 18 7 34 18 34 23 0 12 45 57 57 57 15 0 33 16
28 25 -3 5 6 25 20 46 14 21 28 49 31 63 3 14 7 32 10 38 2 7 35 33 73 58 39
25 73 49 76 54 3 5 19 12 36 16 58 13 79 44 96 147 8 51 13 123 10 161 -3 40
0 67 6 67 5 0 8 22 5 55 -5 55 -4 55 23 55 15 0 31 5 34 10 4 6 11 7 17 4 6
-4 8 -3 5 3 -3 5 1 34 9 64 8 30 17 123 21 207 5 137 2 239 -24 662 -17 269
-5 583 33 895 8 66 17 149 19 185 3 36 14 101 23 144 17 76 19 79 49 82 22 3
38 -3 57 -21 16 -15 39 -25 56 -25 23 0 33 -7 45 -30 9 -17 14 -34 11 -38 -9
-15 52 -12 64 3 7 8 16 12 21 9 5 -3 6 2 3 10 -8 20 35 37 91 38 22 0 49 6 60
13 25 15 57 102 59 159 1 23 5 46 8 51 5 9 3 149 -3 165 -1 3 -1 8 -1 12 2 12
-23 25 -82 43 -43 14 -63 26 -75 46 -18 32 -73 48 -97 28 -7 -6 -12 -15 -9
-19 10 -17 -23 -40 -70 -49 -30 -6 -56 -18 -66 -30 -13 -16 -29 -21 -66 -21
-45 0 -50 2 -67 34 l-18 34 -142 -1 c-94 -1 -148 3 -161 10 -18 11 -18 12 -2
13 18 0 24 25 7 35 -15 9 -80 -23 -102 -50 -18 -23 -25 -25 -111 -25 -100 0
-165 -13 -173 -35 -3 -8 -19 -17 -35 -20 -34 -8 -1101 -8 -1346 0 -109 3 -173
1 -173 -5 0 -5 -13 -8 -30 -6 -16 2 -31 -2 -33 -8 -3 -8 -9 -7 -20 3 -11 8
-29 11 -49 8 -18 -4 -235 -8 -483 -9 -401 -3 -452 -1 -465 13 -31 33 -64 42
-141 40 -44 -1 -95 5 -120 13 -24 7 -56 17 -71 20 -18 4 -28 13 -28 24 0 10
-5 23 -12 30 -13 13 -60 16 -71 5z m1229 -476 c0 -1 -2 -30 -5 -64 -4 -34 -4
-60 0 -58 3 3 16 -7 29 -20 28 -30 68 -43 137 -47 47 -3 53 -5 53 -25 0 -13 4
-23 8 -23 13 0 52 -39 52 -52 0 -11 -300 -5 -425 8 -84 9 -269 44 -274 52 -3
4 -15 8 -26 10 -22 3 -54 15 -170 63 -44 19 -82 34 -85 35 -24 3 -80 42 -94
64 -27 47 -22 59 32 62 47 3 766 -2 768 -5z m1809 -11 c18 -13 18 -15 -9 -50
-46 -61 -108 -94 -246 -133 -30 -8 -66 -17 -80 -18 -14 -2 -42 -8 -63 -13 -20
-6 -39 -6 -42 -2 -3 5 -20 4 -38 -2 -17 -6 -43 -11 -57 -12 -14 -1 -50 -7 -80
-13 -30 -7 -113 -15 -185 -18 -71 -4 -143 -8 -160 -10 -172 -13 -337 -17 -331
-7 4 7 14 12 22 12 8 0 28 10 44 22 22 16 28 27 24 41 -5 16 -3 19 10 14 9 -4
16 -2 16 2 0 5 19 8 43 6 23 -2 58 1 77 6 46 11 114 81 107 109 -3 11 -1 20 5
20 5 0 7 12 3 30 l-7 30 464 0 c380 0 468 -3 483 -14z m-1275 -1450 c14 -3 61
-11 105 -17 120 -16 122 -16 157 -27 18 -5 43 -10 55 -10 23 -1 55 -24 114
-84 31 -31 39 -50 57 -130 19 -82 29 -163 35 -275 1 -18 11 -43 22 -55 33 -39
46 -69 35 -83 -6 -7 -8 -20 -4 -29 3 -9 1 -16 -5 -16 -6 0 -11 -9 -11 -19 0
-11 -4 -22 -9 -25 -5 -3 -7 -14 -4 -25 5 -21 -21 -51 -46 -51 -10 0 -26 9 -36
20 -10 11 -23 20 -30 20 -6 0 -22 10 -35 22 -20 18 -23 19 -17 4 4 -10 7 -22
7 -27 0 -5 12 -14 26 -19 14 -6 22 -15 19 -20 -4 -7 -14 -5 -28 5 -12 8 -31
15 -42 15 -19 -1 -19 -1 -2 -14 17 -13 17 -15 1 -31 -17 -16 -18 -16 -30 0
-12 16 -16 16 -51 2 -49 -19 -51 -46 -3 -62 l34 -11 -31 -14 c-17 -8 -29 -18
-26 -23 3 -6 -4 -17 -16 -26 -18 -14 -20 -21 -12 -43 5 -14 7 -36 4 -48 -4
-13 2 -32 16 -51 12 -16 17 -29 12 -29 -5 0 -13 5 -17 11 -4 7 -27 9 -68 4
-37 -4 -73 -2 -91 5 -21 8 -36 8 -57 -1 -24 -10 -32 -9 -46 4 -16 15 -20 15
-40 1 -21 -14 -23 -14 -31 7 l-8 23 -13 -24 -12 -23 -18 22 c-16 22 -18 22
-46 8 -34 -17 -103 -25 -122 -13 -8 4 -16 5 -19 2 -9 -9 -33 14 -33 32 0 8 -8
20 -17 27 -14 11 -15 16 -4 28 10 13 9 19 -8 36 -12 12 -21 22 -21 24 0 2 21
3 48 2 40 0 47 -3 47 -20 0 -15 6 -19 25 -17 35 4 36 9 7 38 -23 23 -31 25
-71 19 -41 -7 -46 -5 -46 12 0 16 -5 19 -25 15 -20 -3 -25 0 -25 17 0 12 -6
21 -15 21 -8 0 -15 8 -15 17 0 12 -3 14 -10 7 -7 -7 -6 -20 4 -39 20 -37 12
-44 -17 -17 -13 12 -28 22 -35 22 -14 0 -87 37 -124 62 -16 11 -28 28 -28 39
0 10 -4 19 -9 19 -12 0 -25 57 -22 95 3 30 41 110 72 153 10 13 21 36 24 52 4
17 10 30 15 30 30 0 9 91 -25 103 -8 4 -15 16 -15 27 0 11 -7 20 -15 20 -8 0
-15 5 -15 10 0 6 7 10 15 10 11 0 14 7 9 24 -4 19 3 32 36 65 23 22 46 41 52
41 5 0 29 16 52 35 24 19 48 35 54 35 6 0 30 13 54 29 24 15 61 34 83 41 22 7
48 16 57 21 10 5 27 9 37 9 11 0 23 5 26 10 6 10 154 7 205 -4z"/>
<path d="M2458 2798 c-2 -18 -9 -22 -30 -20 -14 1 -29 -2 -33 -8 -3 -5 -15
-10 -26 -10 -10 0 -19 -4 -19 -9 0 -5 16 -9 36 -9 39 0 71 -23 59 -42 -4 -6
-16 -10 -26 -7 -21 6 -26 -8 -8 -19 8 -4 7 -9 -2 -15 -11 -7 -10 -11 5 -22 11
-8 17 -18 13 -23 -3 -5 18 -10 46 -11 53 -2 95 16 83 35 -9 14 16 21 36 10 10
-4 36 -5 59 -2 40 7 41 7 18 20 -15 8 -24 22 -24 36 0 19 -5 23 -27 21 -16 -1
-28 2 -28 6 0 11 58 25 92 22 14 -1 29 3 33 8 3 6 0 8 -8 5 -8 -3 -18 -1 -22
5 -3 6 -15 11 -26 11 -10 0 -19 4 -19 8 0 4 -18 8 -40 9 -22 1 -40 -3 -40 -8
0 -6 -7 -4 -15 4 -8 9 -23 13 -34 10 -10 -3 -22 0 -25 6 -11 18 -24 13 -28
-11z"/>
<path d="M2788 2599 c-10 -5 -18 -17 -18 -24 0 -9 -10 -15 -22 -15 -13 0 -31
-7 -42 -15 -11 -8 -30 -12 -47 -8 -24 5 -27 3 -22 -15 3 -14 -2 -24 -16 -31
-26 -14 -27 -31 -3 -31 10 0 47 -24 81 -54 34 -30 74 -56 89 -59 15 -2 34 -7
43 -11 24 -10 97 69 110 119 5 22 15 50 21 63 10 18 8 25 -8 37 -52 39 -136
62 -166 44z"/>
<path d="M2003 2544 c-72 -109 -72 -102 -14 -150 26 -22 44 -28 74 -28 21 1
34 -2 27 -6 -7 -4 -9 -16 -6 -28 9 -27 40 -17 33 9 -3 11 0 19 5 19 6 0 39 25
73 54 45 40 67 53 82 50 12 -3 24 -1 27 5 5 7 -1 11 -15 11 -21 0 -21 0 2 20
23 20 24 20 5 35 -11 8 -36 17 -55 21 -20 3 -56 12 -81 19 -25 8 -61 17 -82
20 -35 7 -37 6 -75 -51z"/>
<path d="M2455 2467 c-10 -8 -15 -19 -12 -24 4 -6 -1 -10 -11 -9 -14 1 -17 -6
-14 -46 2 -25 -2 -49 -8 -53 -5 -3 -10 -22 -10 -41 0 -19 -4 -34 -10 -34 -5 0
-10 -10 -9 -22 l0 -23 9 22 c5 12 27 31 50 43 22 11 40 27 40 35 0 30 22 14
41 -30 14 -31 26 -45 39 -45 13 0 18 5 14 15 -4 8 -1 22 6 30 17 20 4 70 -34
128 -23 35 -36 47 -49 43 -13 -3 -17 0 -13 10 7 18 -5 18 -29 1z"/>
</g>
</svg>
